<svg xmlns="http://www.w3.org/2000/svg" viewBox="0 0 142 142" fill="none">
  <path d="M100.03 129.409C83.9412 145.498 58.0594 145.498 41.9707 129.409L12.5914 100.03C-3.49727 83.9409 -3.49727 58.0591 12.5914 41.9704L41.9707 12.5911C58.0594 -3.49754 83.9412 -3.49754 100.03 12.5911L129.409 41.9704C145.498 58.0591 145.498 83.9409 129.409 100.03L100.03 129.409Z" fill="#ED1D24"/>
  <path d="M53.8621 114.02C51.7636 114.02 49.665 111.921 49.665 109.823C49.665 108.424 50.3645 107.724 51.0641 107.025C51.7636 106.325 53.1626 105.626 53.8621 105.626C55.9606 105.626 58.0591 107.724 58.0591 109.823C58.0591 111.921 55.9606 114.02 53.8621 114.02Z" fill="#ffffff"/>
  <path d="M69.2516 34.2759C67.1531 34.2759 65.0546 34.9754 63.6556 36.3744C60.1581 39.8719 58.759 46.1675 58.759 55.2611C58.759 66.4532 61.5571 88.1379 70.6507 100.03C72.0497 102.128 73.4487 103.527 75.5472 104.227C76.9462 104.926 79.0447 106.325 81.8428 106.325C82.5423 106.325 83.2418 106.325 83.9413 106.325C88.8379 104.926 95.1334 99.3301 100.03 92.335C100.729 90.936 102.128 90.2365 103.528 90.2365C104.227 90.2365 104.927 90.2365 105.626 90.936C106.326 91.6355 107.025 92.335 107.025 93.0345C107.025 93.734 107.025 95.133 106.326 95.8325C100.03 105.626 92.3354 111.921 85.3403 113.32C83.9413 113.32 82.5423 114.02 81.1433 114.02C76.2467 114.02 73.4487 111.921 70.6507 110.522C68.5521 109.123 66.4536 107.025 64.3551 104.227C51.764 88.1379 51.0645 58.0591 51.0645 55.2611C51.0645 47.5665 51.764 36.3744 58.0595 30.0788C60.8576 27.2808 65.0546 25.8818 69.2516 25.8818H69.9512C74.1482 25.8818 78.3452 27.2808 81.1433 30.0788C87.4388 36.3744 88.8379 46.867 88.1383 55.2611C88.1383 63.6552 86.7393 79.7438 77.6457 93.734C76.9462 95.133 75.5472 95.8325 74.1482 95.8325C73.4487 95.8325 72.7492 95.8325 72.0497 95.133C69.9512 93.734 69.9512 91.6355 70.6507 89.537C76.9462 79.7438 79.7443 68.5517 79.7443 54.5616C79.7443 45.468 78.3452 38.4729 74.8477 35.6749C74.1482 34.9754 72.7492 34.2759 69.2516 34.2759Z" fill="#ffffff"/>
</svg>
