<svg width="545" height="43" viewBox="0 0 545 43" fill="none" xmlns="http://www.w3.org/2000/svg">
<g clip-path="url(#clip0_33_112)">
<path d="M61.7571 0C46.0751 0 36.6821 9.578 36.6821 21.42C36.6821 33.244 46.0751 42.826 61.7571 42.826C77.4341 42.826 86.8411 33.244 86.8411 21.42C86.8411 9.578 77.4351 0 61.7571 0ZM61.7571 38.23C54.2381 38.23 48.5261 30.689 48.5261 21.419C48.5261 12.108 54.2381 4.581 61.7571 4.581C69.2791 4.581 74.9891 12.108 74.9891 21.419C74.9891 30.689 69.2791 38.23 61.7571 38.23Z" fill="#E60012"/>
<path d="M132.061 1.479H88.978V6.287H105.478V41.094H117.926V6.287H132.061V1.479Z" fill="#E60012"/>
<path d="M179.267 1.479H136.186V6.287H150.314V41.094H162.737V6.287H179.267V1.479Z" fill="#E60012"/>
<path d="M14.305 36.336C12.994 36.336 11.929 35.279 11.929 33.973V1.48199H0V36.359C0 38.959 2.119 41.06 4.748 41.06H35.253V36.335L14.305 36.336Z" fill="#E60012"/>
<path d="M198.347 6.211H221.319V1.479H188.781C186.159 1.479 184.024 3.665 184.024 6.241V36.362C184.024 38.96 186.159 41.061 188.781 41.061H221.319V36.389H198.347C197.042 36.389 195.972 35.344 195.972 34.037V22.373H220.964V17.752H195.972V8.568C195.972 7.275 197.042 6.211 198.347 6.211Z" fill="#E60012"/>
</g>
<path d="M525.264 0.412994C528.707 0.412994 531.961 0.999481 535.026 2.17245C538.091 3.34543 540.702 4.93461 542.859 6.94002L540.021 10.3454C537.864 8.34002 535.594 6.90218 533.21 6.03191C530.864 5.1238 528.405 4.66975 525.832 4.66975C523.902 4.66975 522.124 5.01029 520.497 5.69137C518.869 6.33462 517.451 7.33732 516.24 8.69948C515.067 10.0616 514.14 11.8022 513.459 13.9211C512.815 16.0022 512.494 18.4995 512.494 21.413C512.494 24.4022 512.834 26.9752 513.515 29.1319C514.197 31.2508 515.142 33.0103 516.353 34.4103C517.564 35.7725 519.021 36.7941 520.724 37.4752C522.464 38.1184 524.356 38.44 526.399 38.44C528.102 38.44 529.559 38.2887 530.77 37.986C532.018 37.6833 533.059 37.3238 533.891 36.9076C534.875 36.4535 535.688 35.9238 536.332 35.3184V24.5346H528.953V20.8454H544.561V36.4535C543.161 37.5887 541.534 38.5914 539.68 39.4616C538.091 40.2184 536.124 40.8995 533.778 41.5049C531.47 42.1103 528.821 42.413 525.832 42.413C522.426 42.413 519.361 41.9589 516.637 41.0508C513.913 40.1427 511.586 38.7995 509.656 37.0211C507.726 35.2427 506.251 33.0481 505.229 30.4373C504.207 27.8265 503.697 24.8184 503.697 21.413C503.697 18.0076 504.207 14.9995 505.229 12.3887C506.251 9.77786 507.688 7.58327 509.542 5.80489C511.434 4.02651 513.705 2.68326 516.353 1.77516C519.04 0.867048 522.01 0.412994 525.264 0.412994Z" fill="url(#paint0_linear_33_112)"/>
<path d="M498.001 1.54813V41.2779H487.217L465.933 8.92651H465.366V41.2779H457.136V1.54813H467.92L489.203 33.8995H489.771V1.54813H498.001Z" fill="url(#paint1_linear_33_112)"/>
<path d="M450.316 41.2779H442.086V1.54813H450.316V41.2779Z" fill="url(#paint2_linear_33_112)"/>
<path d="M407.771 35.6022H408.339L423.095 1.54813H435.298V41.2779H427.068V9.49408H426.501L412.879 41.2779H403.23L389.609 9.49408H389.041V41.2779H380.812V1.54813H393.014L407.771 35.6022Z" fill="url(#paint3_linear_33_112)"/>
<path d="M345.888 27.3725H363.483L354.969 6.37246H354.402L345.888 27.3725ZM361.212 1.54813L377.388 41.2779H369.215L365.469 31.6292H343.902L340.156 41.2779H331.983L348.158 1.54813H361.212Z" fill="url(#paint4_linear_33_112)"/>
<path d="M309.814 4.38597C307.885 4.38597 306.068 4.72651 304.366 5.40759C302.701 6.08867 301.244 7.12921 299.995 8.52921C298.747 9.92921 297.744 11.7076 296.987 13.8643C296.268 15.9833 295.909 18.4995 295.909 21.413C295.909 24.3265 296.268 26.8616 296.987 29.0184C297.744 31.1373 298.747 32.8968 299.995 34.2968C301.244 35.6968 302.701 36.7373 304.366 37.4184C306.068 38.0995 307.885 38.44 309.814 38.44C311.744 38.44 313.541 38.0995 315.206 37.4184C316.909 36.7373 318.385 35.6968 319.633 34.2968C320.882 32.8968 321.866 31.1373 322.585 29.0184C323.341 26.8616 323.72 24.3265 323.72 21.413C323.72 18.4995 323.341 15.9833 322.585 13.8643C321.866 11.7076 320.882 9.92921 319.633 8.52921C318.385 7.12921 316.909 6.08867 315.206 5.40759C313.541 4.72651 311.744 4.38597 309.814 4.38597ZM309.814 0.412994C313.22 0.412994 316.304 0.867048 319.066 1.77516C321.866 2.68326 324.25 4.02651 326.217 5.80489C328.223 7.58327 329.774 9.77786 330.871 12.3887C331.968 14.9995 332.517 18.0076 332.517 21.413C332.517 24.8184 331.968 27.8265 330.871 30.4373C329.774 33.0481 328.223 35.2427 326.217 37.0211C324.25 38.7995 321.866 40.1427 319.066 41.0508C316.304 41.9589 313.22 42.413 309.814 42.413C306.409 42.413 303.306 41.9589 300.506 41.0508C297.706 40.1427 295.304 38.7995 293.298 37.0211C291.331 35.2427 289.798 33.0481 288.701 30.4373C287.641 27.8265 287.112 24.8184 287.112 21.413C287.112 18.0076 287.641 14.9995 288.701 12.3887C289.798 9.77786 291.331 7.58327 293.298 5.80489C295.304 4.02651 297.706 2.68326 300.506 1.77516C303.306 0.867048 306.409 0.412994 309.814 0.412994Z" fill="url(#paint5_linear_33_112)"/>
<path d="M264.42 1.54813C267.258 1.54813 269.793 1.86975 272.025 2.51299C274.295 3.1184 276.206 4.02651 277.758 5.23732C279.309 6.41029 280.501 7.86705 281.333 9.60759C282.166 11.3103 282.582 13.2589 282.582 15.4535C282.582 18.4806 281.825 21.0346 280.312 23.1157C278.798 25.1968 276.622 26.786 273.785 27.8833L283.149 41.2779H273.785L265.441 29.3589H252.217V41.2779H243.987V1.54813H264.42ZM252.217 5.80489V25.1022H264.42C267.409 25.1022 269.717 24.3265 271.344 22.7752C272.971 21.186 273.785 18.7454 273.785 15.4535C273.785 12.1616 272.971 9.74002 271.344 8.18867C269.717 6.59948 267.409 5.80489 264.42 5.80489H252.217Z" fill="url(#paint6_linear_33_112)"/>
<defs>
<linearGradient id="paint0_linear_33_112" x1="243.987" y1="0.937952" x2="544.561" y2="41.888" gradientUnits="userSpaceOnUse">
<stop stop-color="#E60012"/>
<stop offset="1" stop-color="#FF7A52"/>
</linearGradient>
<linearGradient id="paint1_linear_33_112" x1="243.987" y1="0.937952" x2="544.561" y2="41.888" gradientUnits="userSpaceOnUse">
<stop stop-color="#E60012"/>
<stop offset="1" stop-color="#FF7A52"/>
</linearGradient>
<linearGradient id="paint2_linear_33_112" x1="243.987" y1="0.937952" x2="544.561" y2="41.888" gradientUnits="userSpaceOnUse">
<stop stop-color="#E60012"/>
<stop offset="1" stop-color="#FF7A52"/>
</linearGradient>
<linearGradient id="paint3_linear_33_112" x1="243.987" y1="0.937952" x2="544.561" y2="41.888" gradientUnits="userSpaceOnUse">
<stop stop-color="#E60012"/>
<stop offset="1" stop-color="#FF7A52"/>
</linearGradient>
<linearGradient id="paint4_linear_33_112" x1="243.987" y1="0.937952" x2="544.561" y2="41.888" gradientUnits="userSpaceOnUse">
<stop stop-color="#E60012"/>
<stop offset="1" stop-color="#FF7A52"/>
</linearGradient>
<linearGradient id="paint5_linear_33_112" x1="243.987" y1="0.937952" x2="544.561" y2="41.888" gradientUnits="userSpaceOnUse">
<stop stop-color="#E60012"/>
<stop offset="1" stop-color="#FF7A52"/>
</linearGradient>
<linearGradient id="paint6_linear_33_112" x1="243.987" y1="0.937952" x2="544.561" y2="41.888" gradientUnits="userSpaceOnUse">
<stop stop-color="#E60012"/>
<stop offset="1" stop-color="#FF7A52"/>
</linearGradient>
<clipPath id="clip0_33_112">
<rect width="221.319" height="42.826" fill="white"/>
</clipPath>
</defs>
</svg>
